<?xml version="1.0" encoding="utf-8" ?>
<svg baseProfile="full" height="920" version="1.1" width="160" xmlns="http://www.w3.org/2000/svg" xmlns:ev="http://www.w3.org/2001/xml-events" xmlns:inkscape="http://www.inkscape.org/namespaces/inkscape" xmlns:sodipodi="http://sodipodi.sourceforge.net/DTD/sodipodi-0.dtd" xmlns:xlink="http://www.w3.org/1999/xlink"><defs><style type="text/css"><![CDATA[@import url('https://fonts.googleapis.com/css2?family=Mogra&display=swap');]]></style></defs><rect fill="white" height="40" stroke="black" width="40" x="0" y="0" /><rect fill="lightsteelblue" height="40" stroke="black" width="40" x="40" y="0" /><rect fill="white" height="40" stroke="black" width="40" x="80" y="0" /><rect fill="white" height="40" stroke="black" width="40" x="120" y="0" /><rect fill="white" height="40" stroke="black" width="40" x="0" y="40" /><rect fill="white" height="40" stroke="black" width="40" x="40" y="40" /><rect fill="white" height="40" stroke="black" width="40" x="80" y="40" /><rect fill="white" height="40" stroke="black" width="40" x="120" y="40" /><rect fill="white" height="40" stroke="black" width="40" x="0" y="80" /><rect fill="white" height="40" stroke="black" width="40" x="40" y="80" /><rect fill="white" height="40" stroke="black" width="40" x="80" y="80" /><rect fill="white" height="40" stroke="black" width="40" x="120" y="80" /><rect fill="white" height="40" stroke="black" width="40" x="0" y="120" /><rect fill="white" height="40" stroke="black" width="40" x="40" y="120" /><rect fill="white" height="40" stroke="black" width="40" x="80" y="120" /><rect fill="white" height="40" stroke="black" width="40" x="120" y="120" /><rect fill="white" height="40" stroke="black" width="40" x="0" y="160" /><rect fill="white" height="40" stroke="black" width="40" x="40" y="160" /><rect fill="white" height="40" stroke="black" width="40" x="80" y="160" /><rect fill="white" height="40" stroke="black" width="40" x="120" y="160" /><rect fill="white" height="40" stroke="black" width="40" x="0" y="200" /><rect fill="white" height="40" stroke="black" width="40" x="40" y="200" /><rect fill="white" height="40" stroke="black" width="40" x="80" y="200" /><rect fill="white" height="40" stroke="black" width="40" x="120" y="200" /><rect fill="white" height="40" stroke="black" width="40" x="0" y="240" /><rect fill="white" height="40" stroke="black" width="40" x="40" y="240" /><rect fill="white" height="40" stroke="black" width="40" x="80" y="240" /><rect fill="white" height="40" stroke="black" width="40" x="120" y="240" /><rect fill="white" height="40" stroke="black" width="40" x="0" y="280" /><rect fill="white" height="40" stroke="black" width="40" x="40" y="280" /><rect fill="white" height="40" stroke="black" width="40" x="80" y="280" /><rect fill="white" height="40" stroke="black" width="40" x="120" y="280" /><rect fill="white" height="40" stroke="black" width="40" x="0" y="320" /><rect fill="white" height="40" stroke="black" width="40" x="40" y="320" /><rect fill="white" height="40" stroke="black" width="40" x="80" y="320" /><rect fill="white" height="40" stroke="black" width="40" x="120" y="320" /><rect fill="white" height="40" stroke="black" width="40" x="0" y="360" /><rect fill="white" height="40" stroke="black" width="40" x="40" y="360" /><rect fill="white" height="40" stroke="black" width="40" x="80" y="360" /><rect fill="white" height="40" stroke="black" width="40" x="120" y="360" /><rect fill="white" height="40" stroke="black" width="40" x="0" y="400" /><rect fill="white" height="40" stroke="black" width="40" x="40" y="400" /><rect fill="white" height="40" stroke="black" width="40" x="80" y="400" /><rect fill="white" height="40" stroke="black" width="40" x="120" y="400" /><rect fill="white" height="40" stroke="black" width="40" x="0" y="440" /><rect fill="white" height="40" stroke="black" width="40" x="40" y="440" /><rect fill="white" height="40" stroke="black" width="40" x="80" y="440" /><rect fill="white" height="40" stroke="black" width="40" x="120" y="440" /><rect fill="white" height="40" stroke="black" width="40" x="0" y="480" /><rect fill="white" height="40" stroke="black" width="40" x="40" y="480" /><rect fill="white" height="40" stroke="black" width="40" x="80" y="480" /><rect fill="white" height="40" stroke="black" width="40" x="120" y="480" /><rect fill="white" height="40" stroke="black" width="40" x="0" y="520" /><rect fill="white" height="40" stroke="black" width="40" x="40" y="520" /><rect fill="white" height="40" stroke="black" width="40" x="80" y="520" /><rect fill="white" height="40" stroke="black" width="40" x="120" y="520" /><rect fill="white" height="40" stroke="black" width="40" x="0" y="560" /><rect fill="white" height="40" stroke="black" width="40" x="40" y="560" /><rect fill="white" height="40" stroke="black" width="40" x="80" y="560" /><rect fill="white" height="40" stroke="black" width="40" x="120" y="560" /><rect fill="white" height="40" stroke="black" width="40" x="0" y="600" /><rect fill="white" height="40" stroke="black" width="40" x="40" y="600" /><rect fill="white" height="40" stroke="black" width="40" x="80" y="600" /><rect fill="white" height="40" stroke="black" width="40" x="120" y="600" /><rect fill="white" height="40" stroke="black" width="40" x="0" y="640" /><rect fill="white" height="40" stroke="black" width="40" x="40" y="640" /><rect fill="white" height="40" stroke="black" width="40" x="80" y="640" /><rect fill="white" height="40" stroke="black" width="40" x="120" y="640" /><rect fill="white" height="40" stroke="black" width="40" x="0" y="680" /><rect fill="white" height="40" stroke="black" width="40" x="40" y="680" /><rect fill="white" height="40" stroke="black" width="40" x="80" y="680" /><rect fill="white" height="40" stroke="black" width="40" x="120" y="680" /><rect fill="white" height="40" stroke="black" width="40" x="0" y="720" /><rect fill="white" height="40" stroke="black" width="40" x="40" y="720" /><rect fill="white" height="40" stroke="black" width="40" x="80" y="720" /><rect fill="white" height="40" stroke="black" width="40" x="120" y="720" /><rect fill="white" height="40" stroke="black" width="40" x="0" y="760" /><rect fill="white" height="40" stroke="black" width="40" x="40" y="760" /><rect fill="white" height="40" stroke="black" width="40" x="80" y="760" /><rect fill="white" height="40" stroke="black" width="40" x="120" y="760" /><rect fill="white" height="40" stroke="black" width="40" x="0" y="800" /><rect fill="white" height="40" stroke="black" width="40" x="40" y="800" /><rect fill="white" height="40" stroke="black" width="40" x="80" y="800" /><rect fill="white" height="40" stroke="black" width="40" x="120" y="800" /><rect fill="white" height="40" stroke="black" width="40" x="0" y="840" /><rect fill="white" height="40" stroke="black" width="40" x="40" y="840" /><rect fill="white" height="40" stroke="black" width="40" x="80" y="840" /><rect fill="white" height="40" stroke="black" width="40" x="120" y="840" /><rect fill="white" height="40" stroke="black" width="40" x="0" y="880" /><rect fill="white" height="40" stroke="black" width="40" x="40" y="880" /><rect fill="white" height="40" stroke="black" width="40" x="80" y="880" /><rect fill="white" height="40" stroke="black" width="40" x="120" y="880" /><g inkscape:groupmode="layer" inkscape:label="Words"><text fill="black" font-family="Mogra" font-size="30" text-anchor="middle" x="140.0" y="30.0">S</text><text fill="black" font-family="Mogra" font-size="30" text-anchor="middle" x="140.0" y="70.0">V</text><text fill="black" font-family="Mogra" font-size="30" text-anchor="middle" x="140.0" y="110.0">G</text><text fill="black" font-family="Mogra" font-size="30" text-anchor="middle" x="140.0" y="190.0">C</text><text fill="black" font-family="Mogra" font-size="30" text-anchor="middle" x="140.0" y="230.0">R</text><text fill="black" font-family="Mogra" font-size="30" text-anchor="middle" x="140.0" y="270.0">O</text><text fill="black" font-family="Mogra" font-size="30" text-anchor="middle" x="140.0" y="310.0">S</text><text fill="black" font-family="Mogra" font-size="30" text-anchor="middle" x="140.0" y="350.0">S</text><text fill="black" font-family="Mogra" font-size="30" text-anchor="middle" x="140.0" y="390.0">W</text><text fill="black" font-family="Mogra" font-size="30" text-anchor="middle" x="140.0" y="430.0">O</text><text fill="black" font-family="Mogra" font-size="30" text-anchor="middle" x="140.0" y="470.0">R</text><text fill="black" font-family="Mogra" font-size="30" text-anchor="middle" x="140.0" y="510.0">D</text><text fill="black" font-family="Mogra" font-size="30" text-anchor="middle" x="140.0" y="590.0">G</text><text fill="black" font-family="Mogra" font-size="30" text-anchor="middle" x="140.0" y="630.0">E</text><text fill="black" font-family="Mogra" font-size="30" text-anchor="middle" x="140.0" y="670.0">N</text><text fill="black" font-family="Mogra" font-size="30" text-anchor="middle" x="140.0" y="710.0">E</text><text fill="black" font-family="Mogra" font-size="30" text-anchor="middle" x="140.0" y="750.0">R</text><text fill="black" font-family="Mogra" font-size="30" text-anchor="middle" x="140.0" y="790.0">A</text><text fill="black" font-family="Mogra" font-size="30" text-anchor="middle" x="140.0" y="830.0">T</text><text fill="black" font-family="Mogra" font-size="30" text-anchor="middle" x="140.0" y="870.0">O</text><text fill="black" font-family="Mogra" font-size="30" text-anchor="middle" x="140.0" y="910.0">R</text></g><text fill="black" font-family="Mogra" font-size="15" text-anchor="middle" x="20.0" y="27.5">(HP)</text><text fill="black" font-family="Mogra" font-size="15" text-anchor="middle" x="20.0" y="67.5">AD</text><text fill="black" font-family="Mogra" font-size="15" text-anchor="middle" x="20.0" y="107.5">AR</text><text fill="black" font-family="Mogra" font-size="15" text-anchor="middle" x="20.0" y="147.5">AU</text><text fill="black" font-family="Mogra" font-size="15" text-anchor="middle" x="20.0" y="187.5">BR</text><text fill="black" font-family="Mogra" font-size="15" text-anchor="middle" x="20.0" y="227.5">BRD</text><text fill="black" font-family="Mogra" font-size="15" text-anchor="middle" x="20.0" y="267.5">BUR</text><text fill="black" font-family="Mogra" font-size="15" text-anchor="middle" x="20.0" y="307.5">C</text><text fill="black" font-family="Mogra" font-size="15" text-anchor="middle" x="20.0" y="347.5">CD</text><text fill="black" font-family="Mogra" font-size="15" text-anchor="middle" x="20.0" y="387.5">CL</text><text fill="black" font-family="Mogra" font-size="15" text-anchor="middle" x="20.0" y="427.5">CR</text><text fill="black" font-family="Mogra" font-size="15" text-anchor="middle" x="20.0" y="467.5">DH</text><text fill="black" font-family="Mogra" font-size="15" text-anchor="middle" x="20.0" y="507.5">DH2</text><text fill="black" font-family="Mogra" font-size="15" text-anchor="middle" x="20.0" y="547.5">DH3</text><text fill="black" font-family="Mogra" font-size="15" text-anchor="middle" x="20.0" y="587.5">DH4</text><text fill="black" font-family="Mogra" font-size="15" text-anchor="middle" x="20.0" y="627.5">DR</text><text fill="black" font-family="Mogra" font-size="15" text-anchor="middle" x="20.0" y="667.5">DV</text><text fill="black" font-family="Mogra" font-size="15" text-anchor="middle" x="20.0" y="707.5">LH</text><text fill="black" font-family="Mogra" font-size="15" text-anchor="middle" x="20.0" y="747.5">RD</text><text fill="black" font-family="Mogra" font-size="15" text-anchor="middle" x="20.0" y="787.5">RR</text><text fill="black" font-family="Mogra" font-size="15" text-anchor="middle" x="20.0" y="827.5">TD</text><text fill="black" font-family="Mogra" font-size="15" text-anchor="middle" x="20.0" y="867.5">TR</text><text fill="black" font-family="Mogra" font-size="15" text-anchor="middle" x="20.0" y="907.5">UR</text><line stroke="black" x1="60" x2="60.0" y1="77" y2="84.0" /><polygon fill="black" points="60,87 57.5,82.0 62.5,82.0" /><line stroke="black" x1="77" x2="84.0" y1="100" y2="100.0" /><polygon fill="black" points="87,100 82.0,102.5 82.0,97.5" /><line stroke="black" x1="60" x2="60.0" y1="123" y2="116.0" /><polygon fill="black" points="60,113 62.5,118.0 57.5,118.0" /><line stroke="black" stroke-width="4" x1="40" x2="72.0" y1="180.0" y2="180.0" /><polygon fill="black" points="70,172 70,188 79,180.0" stroke="black" stroke-width="1" /><line stroke="black" stroke-width="4" x1="40" x2="60.0" y1="220.0" y2="220.0" /><line stroke="black" stroke-width="4" x1="60.0" x2="60.0" y1="218.0" y2="235" /><polygon fill="black" points="52,230 68,230 60.0,239" stroke="black" stroke-width="1" /><line stroke="black" stroke-width="4" x1="60.0" x2="72.0" y1="260.0" y2="260.0" /><line stroke="black" stroke-width="4" x1="60.0" x2="60.0" y1="258.0" y2="280" /><polygon fill="black" points="70,252 70,268 79,260.0" stroke="black" stroke-width="1" /><rect fill="black" height="40" width="40" x="40" y="280" /><text fill="white" font-family="Arial" font-size="10" text-anchor="middle" x="60.0" y="293.0">© Mikael</text><text fill="white" font-family="Arial" font-size="10" text-anchor="middle" x="60.0" y="303.0">Ivarsson</text><text fill="white" font-family="Arial" font-size="10" text-anchor="middle" x="60.0" y="313.0">2025</text><line stroke="black" stroke-width="1" x1="70" x2="75" y1="323" y2="323" /><line stroke="black" x1="75" x2="75.0" y1="322.5" y2="328.0" /><polygon fill="black" points="75,331 72.5,326.0 77.5,326.0" /><line stroke="black" stroke-width="1" x1="75" x2="75" y1="388" y2="395" /><line stroke="black" x1="75" x2="70.0" y1="394.5" y2="394.5" /><polygon fill="black" points="67,394.5 72.0,392.0 72.0,397.0" /><line stroke="black" stroke-width="1" x1="45" x2="45" y1="428" y2="435" /><line stroke="black" x1="45" x2="50.0" y1="434.5" y2="434.5" /><polygon fill="black" points="53,434.5 48.0,437.0 48.0,432.0" /><line stroke="black" stroke-width="1" x1="40" x2="80" y1="460.0" y2="460.0" /><line stroke="black" stroke-width="1" x1="40" x2="80" y1="497.0" y2="497.0" /><line stroke="black" stroke-width="1" x1="40" x2="80" y1="543.0" y2="543.0" /><line stroke="black" stroke-width="1" x1="40" x2="80" y1="573.0" y2="573.0" /><line stroke="black" stroke-width="1" x1="43" x2="43" y1="633" y2="645" /><line stroke="black" x1="42.5" x2="47.0" y1="645" y2="645.0" /><polygon fill="black" points="50,645 45.0,647.5 45.0,642.5" /><line stroke="black" stroke-width="1" x1="60.0" x2="60.0" y1="640" y2="680" /><line stroke="black" stroke-width="4" x1="40" x2="80" y1="700.0" y2="700.0" /><line stroke="black" stroke-width="1" x1="77" x2="84" y1="757" y2="764" /><line stroke="black" x1="83.8" x2="83.8" y1="763.5" y2="769.0" /><polygon fill="black" points="83.8,772 81.3,767.0 86.3,767.0" /><line stroke="black" stroke-width="1" x1="77" x2="84" y1="797" y2="804" /><line stroke="black" x1="83.8" x2="89.0" y1="804" y2="804.0" /><polygon fill="black" points="92,804 87.0,806.5 87.0,801.5" /><polygon fill="white" points="55,800 65,800 60,805" stroke="black" stroke-width="1" /><polygon fill="white" points="40,855 40,865 45,860" stroke="black" stroke-width="1" /><line stroke="black" stroke-width="1" x1="43" x2="43" y1="887" y2="875" /><line stroke="black" x1="42.5" x2="47.0" y1="875" y2="875.0" /><polygon fill="black" points="50,875 45.0,877.5 45.0,872.5" /></svg>